# xmcd CD database file
#
# Track frame offsets:
#	150
#	16239
#	32989
#	66195
#	89459
#	103491
#	133005
#	152347
#	184871
#
# Disc length: 2743 seconds
#
# Revision: 1
# Processed by: cddbd v1.4PL0 Copyright (c) Steve Scherf et al.
# Submitted via: CDex 1.50
#
DISCID=760ab509
DTITLE=Torkom Saraydarian - Far Horizons
DYEAR=1990
DGENRE=New Age
TTITLE0=Unveiling of Isis
TTITLE1=Aspiration
TTITLE2=Gathering Flowers
TTITLE3=Forgive Me, My Lord
TTITLE4=My Rosy Girl
TTITLE5=The Great Pyramid
TTITLE6=Dance of Ecstasy
TTITLE7=My Mother, In Tears I Miss You
TTITLE8=I Walk Toward the Summit
EXTD=YEAR: 1990
EXTT0=
EXTT1=
EXTT2=
EXTT3=
EXTT4=
EXTT5=
EXTT6=
EXTT7=
EXTT8=
PLAYORDER=
